<svg xmlns="http://www.w3.org/2000/svg" id="Flat" viewBox="0 0 1280 1280">
<path d="M202 128q67 19 114 66.5t71 93.5h29q7 0 11.5 4.5t4.5 11.5q0 77 -31 123.5l-33 49.5q-2 2 -6.5 4t-9.5 2l-12.5 2.5t-19.5 26.5q-2 5 -3 8t-3 8q-5 17 -13.5 46t3.5 34q5 2 8.5 8t1.5 11q-5 19 -6.5 90t41.5 131q29 38 72.5 58t103.5 22q1 0 29 -2q28 -1 62 -10.5 t62 -29.5t29 -57q0 -5 2.5 -9t7.5 -4q2 0 36 -37t-4 -136q-3 -2 -1.5 -6t1.5 -7q14 -21 6 -54.5t-13 -47.5q-2 -5 -7 -16t-15 -16q-2 -2 -4.5 -2t-5.5 2q-4 2 -8.5 0.5t-7.5 -3.5q-60 -60 -60 -122t3 -67q0 -5 5.5 -9t10.5 -4h41q32 -60 79.5 -101.5t100.5 -58.5l12 -3 q63 -19 107 -46.5t44 -126.5q0 -7 4.5 -11.5t11.5 -4.5t11.5 4.5t4.5 11.5q0 115 -54 150.5t-119 54.5h-13q-74 22 -114 76.5t-52 73.5q-3 5 -7 7.5t-6 2.5h-38q-3 19 2.5 60.5t41.5 80.5q8 0 13.5 0.5t12.5 2.5q19 10 28.5 28t9.5 20t13.5 44t-3.5 78q36 96 7 142.5 t-49 58.5q-4 47 -38 72q-33 26 -71.5 37.5t-71.5 13.5t-36 2q-67 -2 -117.5 -26t-84.5 -67q-45 -62 -48.5 -132.5t3.5 -104.5q-21 -16 -13.5 -50.5t17.5 -61.5q2 -4 4 -8.5t2 -7.5q10 -28 26.5 -39.5t31.5 -11.5q9 -12 27.5 -46.5t23.5 -84.5h-19q-5 0 -9 -2.5t-4 -7.5 q-19 -40 -65 -86.5t-108 -63.5l-16 -3q-65 -19 -120.5 -55.5t-55.5 -149.5q0 -7 4.5 -11.5t11.5 -4.5t11.5 4.5t4.5 11.5q0 96 44.5 125t109.5 48zM1155 160q-14 10 -30.5 17t-33.5 12q-14 5 -26 10t-22 12q-17 10 -32 35.5t7 73.5q12 2 22 14t19 31q12 24 16.5 51t-9.5 42 q2 57 -12.5 100.5t-45.5 75.5q-41 43 -85 50t-46 7q-7 0 -11.5 -4.5t-4.5 -11.5t4.5 -11.5t11.5 -4.5l37.5 -6t71.5 -42q26 -26 38 -66.5t10 -93.5q0 -5 2 -7.5t4 -5.5q2 -2 2.5 -7t0.5 -15q-2 -24 -14.5 -43t-17.5 -21q-5 2 -9 0.5t-7 -3.5q-2 0 -3 -2t-3 -5 q-22 -50 -12.5 -91t47.5 -65q12 -8 26 -13.5t28 -12.5q15 -5 31 -11.5t30 -14.5q72 -45 90.5 -112.5t18.5 -69.5q0 -7 4.5 -10t11.5 -3h0.5h2.5q7 0 11 5.5t2 10.5q0 3 -21.5 77.5t-103.5 127.5v0z"/>
</svg>