<svg width="20" height="20" viewBox="0 0 20 20" fill="none" xmlns="http://www.w3.org/2000/svg">
<g clip-path="url(#clip0_14_30)">
<path d="M10 0C4.48438 0 0 4.48438 0 10C0 15.5156 4.48438 20 10 20C15.5156 20 20 15.5156 20 10C20 4.48438 15.5156 0 10 0ZM10 18.75C5.17578 18.75 1.25 14.8242 1.25 10C1.25 5.17578 5.17578 1.25 10 1.25C14.8242 1.25 18.75 5.17578 18.75 10C18.75 14.8242 14.8242 18.75 10 18.75Z" fill="url(#paint0_linear_14_30)"/>
<path d="M10.625 3.75H9.375V10.2578L13.3086 14.1914L14.1914 13.3086L10.625 9.74219V3.75Z" fill="url(#paint1_linear_14_30)"/>
</g>
<defs>
<linearGradient id="paint0_linear_14_30" x1="0.907637" y1="2.27316" x2="22.2358" y2="20.3982" gradientUnits="userSpaceOnUse">
<stop stop-color="#FFA026"/>
<stop offset="1" stop-color="#FF6061"/>
</linearGradient>
<linearGradient id="paint1_linear_14_30" x1="2.24008" y1="0.705235" x2="23.5682" y2="18.8302" gradientUnits="userSpaceOnUse">
<stop stop-color="#FFA026"/>
<stop offset="1" stop-color="#FF6061"/>
</linearGradient>
<clipPath id="clip0_14_30">
<rect width="20" height="20" fill="white"/>
</clipPath>
</defs>
</svg>
