<svg width="27" height="27" viewBox="0 0 27 27" fill="none" xmlns="http://www.w3.org/2000/svg">
<path d="M11.6929 6.29906L7.46424 1.41984C6.97638 0.856925 6.08309 0.860563 5.51661 1.42779L2.03918 4.90984C1.00424 5.94615 0.708 7.48525 1.30603 8.71898C4.908 16.1499 10.8371 22.0869 18.2581 25.6936C19.4903 26.2924 21.0274 25.9958 22.0623 24.9595L25.5727 21.4443C26.1415 20.8749 26.1425 19.9763 25.5753 19.4893L20.6745 15.283C20.1616 14.8428 19.3659 14.9005 18.8519 15.4153L17.1471 17.1223C16.9575 17.3121 16.6725 17.3575 16.4558 17.2325C13.6643 15.623 11.3633 13.319 9.75584 10.5238C9.63101 10.3067 9.67641 10.0213 9.86596 9.83153L11.5655 8.12971C12.0818 7.6128 12.1375 6.81206 11.6929 6.29906Z" stroke="#FF791F" stroke-linecap="round" stroke-linejoin="round"/>
</svg>
